<svg version="1.1" id="Layer_1" xmlns="http://www.w3.org/2000/svg" xmlns:xlink="http://www.w3.org/1999/xlink" x="0px" y="0px"
	 width="100%" viewBox="0 0 800 800" enable-background="new 0 0 800 800" xml:space="preserve">
<path fill="#000000" opacity="1.000000" stroke="none" 
	d="
M367.000000,765.178101 
	C326.338806,765.195740 286.177643,765.214294 246.016449,765.228271 
	C239.876160,765.230408 239.372055,764.567444 240.399048,758.575745 
	C243.992081,737.613525 247.492111,716.635010 251.184418,695.690369 
	C251.599228,693.337341 251.195648,691.509216 250.095856,689.548828 
	C242.923492,676.763611 235.948227,663.865417 228.614838,651.173828 
	C222.806915,641.122253 219.407333,630.136108 215.596786,619.314636 
	C209.789459,602.822449 204.286728,586.222961 198.644028,569.672668 
	C198.276505,568.594727 197.818298,567.547729 196.961868,565.362732 
	C195.634354,570.405396 197.010162,574.285950 197.455826,577.982300 
	C200.769333,605.464966 206.601044,632.354492 217.228256,658.065125 
	C223.423416,673.053284 223.282700,673.094543 210.213211,682.375244 
	C200.083450,689.568481 189.551041,696.108215 176.951508,697.638550 
	C163.589401,699.261536 150.154587,698.955017 137.856476,692.726868 
	C121.870995,684.631287 115.403175,670.221313 113.851578,653.219727 
	C112.333275,636.582825 117.316765,620.951233 121.876091,605.275452 
	C131.867935,570.921875 141.781235,536.545349 151.754913,502.186462 
	C156.219833,486.805054 161.761734,471.849457 168.982056,457.509827 
	C174.865189,445.825836 183.795273,437.643158 195.683868,432.375702 
	C220.047104,421.581116 244.206085,410.309814 268.744843,399.934082 
	C279.844879,395.240662 288.176331,388.943665 291.715393,376.920227 
	C293.747101,370.017822 297.996887,364.434601 305.157867,361.737762 
	C306.448303,361.251770 307.600067,360.451263 307.660736,358.914978 
	C307.943207,351.762939 308.517059,344.706238 303.347565,338.509674 
	C293.528351,326.739685 284.080505,314.690399 277.030945,300.927307 
	C270.267517,287.722900 265.668610,273.947662 264.832397,259.071411 
	C263.674438,238.473038 270.963928,220.588150 282.684387,204.144150 
	C297.155945,183.840302 317.401123,173.674561 341.644775,170.709122 
	C362.675964,168.136642 383.449341,168.966461 403.164398,176.532059 
	C405.642151,175.634827 403.792511,173.087341 405.526184,172.203918 
	C421.749969,176.937912 427.054169,194.301117 415.554535,206.596191 
	C411.623535,210.799072 411.972534,213.339539 415.240387,217.355133 
	C420.272949,223.539124 425.363678,229.750992 428.854401,237.036331 
	C430.722321,240.934845 431.570770,244.746719 429.450500,248.946274 
	C426.984039,253.831512 428.500580,258.757599 430.220764,263.478333 
	C433.753143,273.172028 438.227020,282.594879 440.901672,292.509979 
	C444.006134,304.018585 442.413483,316.038635 441.803925,327.807953 
	C441.393097,335.740845 441.010925,343.713501 439.522980,351.606049 
	C437.794708,360.773346 432.611450,366.034393 423.651611,367.978943 
	C418.692719,369.055206 413.972809,370.621002 411.446472,376.352997 
	C417.506592,381.206940 422.080811,387.465332 426.628052,393.811829 
	C429.082855,397.237915 433.657318,396.199219 437.310944,396.662140 
	C455.269012,398.937347 473.292419,400.755249 491.124847,403.909454 
	C501.606750,405.763550 511.092560,410.215332 519.755066,416.385284 
	C532.867065,425.724487 547.721741,429.924072 563.516907,431.744507 
	C583.966797,434.101410 604.385132,436.741974 624.794556,439.431091 
	C628.654358,439.939606 630.719788,439.282104 631.165771,434.937286 
	C632.424561,422.675140 633.037903,410.456940 632.343079,398.095795 
	C631.135742,376.617798 626.174988,355.700562 623.587402,334.438873 
	C623.237671,331.565125 623.241577,328.636536 623.962708,326.010010 
	C625.854187,319.121155 623.315369,313.222626 620.561768,307.339508 
	C618.729065,303.423798 616.683472,299.584106 614.440552,295.888000 
	C602.370117,275.996887 599.649109,254.501862 603.241272,231.890640 
	C604.110046,226.421875 604.331726,220.981674 603.017212,215.536865 
	C601.675720,209.980240 601.256775,204.312180 602.213135,198.690765 
	C602.642761,196.165436 601.466858,194.542480 600.394287,192.719635 
	C573.865662,147.632675 547.277893,102.580467 520.821167,57.451378 
	C515.094482,47.682884 509.818298,37.649841 504.366852,27.720949 
	C503.486481,26.117504 502.675781,24.459520 502.018494,22.755157 
	C501.510498,21.437912 500.462555,19.795609 502.312805,18.774817 
	C504.075287,17.802462 505.137268,19.336281 505.963684,20.515507 
	C510.361847,26.791439 514.823547,33.030918 518.987732,39.461414 
	C549.051575,85.887062 579.238403,132.235397 608.044067,179.461456 
	C610.374390,183.281967 612.621521,187.153152 614.886108,190.965103 
	C624.712097,186.630692 634.327942,187.405624 643.458984,200.475861 
	C648.708557,207.990112 655.043945,213.596603 662.466614,218.455200 
	C665.667908,220.550659 668.812866,222.754852 671.825256,225.111771 
	C679.040283,230.756805 681.984680,238.487503 682.221130,247.401306 
	C682.591003,261.344391 680.005554,274.877014 676.269165,288.219604 
	C674.244812,295.448547 671.906982,302.584778 674.132690,310.240753 
	C674.565491,311.729279 674.867737,313.112091 676.241089,314.013763 
	C689.242737,322.549896 695.055664,335.771698 698.959412,349.938660 
	C707.082153,379.416412 716.890991,408.461517 721.848511,438.766296 
	C724.508545,455.027191 726.606384,471.322357 726.730408,487.825653 
	C726.883484,508.207489 715.735657,521.417969 698.947266,530.658630 
	C688.171936,536.589600 675.940186,538.326660 664.132385,541.061401 
	C621.357300,550.968567 578.282776,559.468018 535.209229,567.953064 
	C531.001099,568.781982 528.985291,570.540894 528.120056,574.844360 
	C520.653442,611.981506 513.392090,649.155457 506.461761,686.398071 
	C502.836517,705.879272 503.285034,725.477722 503.266876,745.099670 
	C503.262573,749.765686 503.000977,754.452515 503.353485,759.092041 
	C503.730377,764.052734 501.639801,765.258423 496.981842,765.243774 
	C453.821594,765.107971 410.660706,765.171753 367.000000,765.178101 
M639.097900,210.314407 
	C636.776855,205.737366 633.851990,202.200745 627.924011,202.986862 
	C625.286072,203.336685 624.036438,204.126938 624.593079,207.123062 
	C626.341309,216.533585 626.073242,226.038269 624.409241,235.377243 
	C621.949341,249.183807 623.511047,262.217285 630.381775,274.482819 
	C636.085144,284.664337 641.655884,294.886200 644.526123,306.321686 
	C644.580750,306.539246 645.052795,306.652069 645.572876,306.955292 
	C651.971008,304.364227 658.635803,306.215424 665.795959,307.400024 
	C663.897949,299.790161 665.122498,293.134552 666.901550,286.506500 
	C669.487854,276.870880 672.023499,267.228607 673.390381,257.312042 
	C674.973145,245.829376 673.694397,236.107315 661.924744,229.703934 
	C653.371643,225.050613 645.177246,219.320496 639.097900,210.314407 
M341.104767,357.098175 
	C345.221771,357.635101 349.324615,358.354919 353.458405,358.675171 
	C366.610138,359.694153 379.513611,361.872070 391.975403,366.329132 
	C402.851044,370.218994 402.853760,370.211517 406.446930,358.883881 
	C409.656494,348.765472 409.656494,348.765503 420.305878,348.726959 
	C428.740082,348.696411 430.555542,346.752380 430.845154,338.034210 
	C431.126984,329.551758 431.095856,321.010742 432.139771,312.611938 
	C434.278656,295.403717 425.440247,283.746552 413.355591,273.653778 
	C409.852814,270.728363 407.603149,271.777649 405.621979,275.985565 
	C402.225983,283.198425 403.091980,290.209259 406.305847,297.177917 
	C408.257965,301.410645 410.566650,305.523712 412.057861,309.913788 
	C414.270142,316.426758 411.015625,320.830353 404.247650,321.095795 
	C401.085327,321.219849 397.914185,321.209808 394.749084,321.150879 
	C390.776489,321.076996 389.099335,322.784851 389.201263,326.902924 
	C389.396881,334.806091 385.618011,340.521423 378.745575,344.324829 
	C372.703400,347.668701 366.213562,349.690033 359.504730,351.122681 
	C353.320923,352.443268 347.139587,353.775513 340.958984,355.111053 
	C339.668365,355.389954 338.378662,355.704041 341.104767,357.098175 
z"/>
</svg>